<svg width="125" height="125" viewBox="0 0 125 125" fill="none" xmlns="http://www.w3.org/2000/svg">
<path d="M124.5 62.5C124.5 96.7417 96.7417 124.5 62.5 124.5C28.2583 124.5 0.5 96.7417 0.5 62.5C0.5 28.2583 28.2583 0.5 62.5 0.5C96.7417 0.5 124.5 28.2583 124.5 62.5Z" stroke="#F5F5F5"/>
<path d="M113.535 69.1852C115.172 69.0708 116.228 67.8909 116.37 66.2955C116.543 64.3427 115.209 62.772 112.795 62.5573C110.382 62.3427 108.792 63.6459 108.617 65.6061C108.47 67.2641 109.401 68.5688 110.872 68.9483L110.977 67.7991C110.029 67.5179 109.571 66.6602 109.656 65.7059C109.771 64.4126 110.849 63.5243 112.695 63.6885C114.526 63.8513 115.445 64.9135 115.33 66.2142C115.244 67.1758 114.631 67.9346 113.638 68.0357L113.535 69.1852Z" fill="#F5F5F5"/>
<path d="M115.489 73.2059L108.232 71.0313L107.92 72.073L113.175 73.6477L113.154 73.7151L107.269 74.2838L107.01 75.1483L111.609 78.859L111.589 78.9264L106.338 77.3527L106.025 78.3945L113.282 80.5691L113.68 79.2404L108.732 75.2396L108.757 75.1545L115.091 74.5347L115.489 73.2059Z" fill="#F5F5F5"/>
<path d="M105.341 88.3961C107.476 89.5428 109.456 88.9605 110.384 87.2335C111.315 85.4999 110.706 83.5308 108.572 82.384C106.44 81.2391 104.459 81.8164 103.528 83.5499C102.6 85.277 103.207 87.2494 105.341 88.3961ZM105.877 87.399C104.251 86.5254 103.83 85.1907 104.447 84.0436C105.065 82.8934 106.408 82.5108 108.034 83.3844C109.66 84.258 110.083 85.5895 109.465 86.7398C108.848 87.8868 107.503 88.2726 105.877 87.399Z" fill="#F5F5F5"/>
<path d="M106.243 92.2547L104.772 94.1007L99.6165 89.9935L98.9066 90.8846L104.062 94.9918L102.59 96.8406L103.359 97.4537L107.012 92.8678L106.243 92.2547Z" fill="#F5F5F5"/>
<path d="M95.8609 94.5091L95.0182 95.2814L96.8176 97.2449L95.6722 98.2946C94.3768 99.4817 94.4531 100.852 95.3978 101.883C96.34 102.911 97.6902 103.108 98.9883 101.919L100.979 100.094L95.8609 94.5091ZM97.4724 97.9595L99.4742 100.144L98.416 101.114C97.5815 101.878 96.8258 101.738 96.246 101.105C95.6662 100.473 95.5797 99.6939 96.4033 98.9391L97.4724 97.9595Z" fill="#F5F5F5"/>
<path d="M90.5907 99.2276L86.6036 101.89L87.1499 102.708L90.1864 100.681L91.4742 102.61L88.6808 104.475L89.225 105.29L92.0185 103.425L93.3001 105.345L90.3006 107.347L90.8469 108.166L94.7971 105.528L90.5907 99.2276Z" fill="#F5F5F5"/>
<path d="M87.808 108.922L85.6628 109.905L82.9151 103.914L81.8795 104.388L84.6272 110.38L82.4786 111.366L82.8888 112.26L88.2182 109.816L87.808 108.922Z" fill="#F5F5F5"/>
<path d="M77.605 110.934L78.393 113.886L79.5009 113.591L77.5472 106.271L74.8059 107.003C73.1762 107.438 72.4857 108.595 72.8394 109.905C73.185 111.214 74.342 111.805 75.9717 111.37L77.605 110.934ZM77.357 110.005L75.7237 110.441C74.7766 110.694 74.1098 110.29 73.9333 109.629C73.752 108.95 74.1069 108.185 75.054 107.932L76.6873 107.496L77.357 110.005Z" fill="#F5F5F5"/>
<path d="M60.3554 112.544C60.4022 114.966 61.8803 116.406 63.8405 116.369C65.808 116.331 67.2258 114.834 67.179 112.412C67.1323 109.993 65.6578 108.549 63.6903 108.587C61.7301 108.625 60.3087 110.121 60.3554 112.544ZM61.4872 112.522C61.4515 110.676 62.4086 109.655 63.7104 109.63C65.016 109.605 66.008 110.588 66.0436 112.434C66.0792 114.279 65.1259 115.3 63.8204 115.326C62.5185 115.351 61.5228 114.367 61.4872 112.522Z" fill="#F5F5F5"/>
<path d="M57.3272 115.209L54.998 114.829L56.0592 108.323L54.9347 108.14L53.8735 114.646L51.5406 114.265L51.3822 115.237L57.1688 116.18L57.3272 115.209Z" fill="#F5F5F5"/>
<path d="M47.9397 106.368C46.4764 105.869 45.1029 106.377 44.7002 107.569C44.3872 108.474 44.7146 109.313 45.6167 109.785L45.5976 109.841C44.7827 109.778 44.0953 110.2 43.824 111.006C43.4609 112.059 44.0185 113.254 45.3979 113.724C46.7142 114.174 48.0426 113.74 48.4755 112.586L47.4288 112.229C47.1796 112.878 46.4238 113.066 45.7201 112.826C44.9884 112.576 44.6606 111.968 44.8899 111.307C45.123 110.613 45.8349 110.348 46.6296 110.619L47.2352 110.826L47.5363 109.944L46.9307 109.737C45.9365 109.398 45.5344 108.698 45.7805 107.976C46.0183 107.28 46.7852 107.014 47.6289 107.302C48.4061 107.567 48.8755 108.173 48.7001 108.824L49.7993 109.199C50.1529 108.015 49.3891 106.863 47.9397 106.368Z" fill="#F5F5F5"/>
<path d="M39.7157 108.136L38.1908 110.784L39.1844 111.356L42.9654 104.791L40.5068 103.375C39.0451 102.533 37.7395 102.866 37.0652 104.044C36.3863 105.215 36.7891 106.45 38.2508 107.292L39.7157 108.136ZM32.8344 107.699L33.8249 108.269L37.6058 101.704L36.6153 101.134L32.8344 107.699ZM40.1957 107.302L38.7308 106.459C37.8813 105.969 37.6939 105.213 38.0355 104.62C38.3862 104.011 39.1773 103.719 40.0268 104.208L41.4917 105.052L40.1957 107.302Z" fill="#F5F5F5"/>
<path d="M34.1733 99.4599L31.9833 97.5532C30.6553 96.397 29.4798 96.536 28.7171 97.412C27.9471 98.2964 28.1317 99.335 28.6713 99.8588L28.6227 99.9146C27.9817 99.5919 27.2327 99.5676 26.6109 100.282C25.875 101.127 25.89 102.293 27.1064 103.352L29.1989 105.174L34.1733 99.4599ZM32.6676 99.4487L31.0742 101.279L29.7992 100.169C29.1073 99.5664 29.0635 98.7436 29.5372 98.1995C29.9549 97.7197 30.5947 97.644 31.4233 98.3654L32.6676 99.4487ZM30.4888 101.951L28.9756 103.689L27.7982 102.664C27.1147 102.069 27.1016 101.425 27.5146 100.951C27.9955 100.398 28.7535 100.44 29.3338 100.946L30.4888 101.951Z" fill="#F5F5F5"/>
<path d="M23.6298 88.2083L22.8219 87.0716L21.2335 92.0583L16.7135 91.5541L17.5214 92.6908L21.7882 93.1707L22.0047 93.4752L19.3966 95.329L20.0588 96.2606L26.2337 91.8716L25.5715 90.94L22.8036 92.9073L22.3365 92.25L23.6298 88.2083Z" fill="#F5F5F5"/>
<path d="M15.539 81.2411C13.3519 82.2837 12.6503 84.2246 13.4939 85.9943C14.3408 87.7707 16.2888 88.4443 18.4759 87.4017C20.6597 86.3607 21.3662 84.4216 20.5194 82.6452C19.6758 80.8755 17.7261 80.1985 15.539 81.2411ZM16.0261 82.2629C17.6923 81.4686 19.0175 81.9187 19.5778 83.0941C20.1397 84.2728 19.6534 85.5823 17.9872 86.3766C16.321 87.1709 14.9975 86.7241 14.4356 85.5454C13.8753 84.37 14.3599 83.0572 16.0261 82.2629Z" fill="#F5F5F5"/>
<path d="M18.1614 77.7042L17.8708 76.5987L14.676 77.4385L13.7159 73.7858L16.9106 72.9461L16.6191 71.837L9.29225 73.763L9.58377 74.872L12.7678 74.0351L13.728 77.6877L10.5439 78.5247L10.8345 79.6302L18.1614 77.7042Z" fill="#F5F5F5"/>
<path d="M10.4988 63.5153C8.90187 63.8921 8.05035 65.2269 8.16764 66.8243C8.31121 68.7795 9.88172 70.1145 12.2981 69.9371C14.7145 69.7596 16.0738 68.217 15.9297 66.2544C15.8078 64.5942 14.6783 63.4569 13.166 63.3194L13.2469 64.4707C14.2278 64.5953 14.8186 65.3679 14.8888 66.3234C14.9838 67.6183 14.0632 68.6688 12.215 68.8045C10.3814 68.9391 9.30279 68.0391 9.20717 66.7368C9.13648 65.774 9.61946 64.9262 10.5833 64.6663L10.4988 63.5153Z" fill="#F5F5F5"/>
<path d="M8.96321 60.1077L9.21746 57.7615L15.7709 58.4716L15.8936 57.3389L9.3402 56.6288L9.59485 54.2788L8.61661 54.1728L7.98498 60.0017L8.96321 60.1077Z" fill="#F5F5F5"/>
<path d="M16.6489 52.088L14.9094 50.8725L15.7159 48.0253L17.8334 47.9061L18.1641 46.7387L10.1321 47.2972L9.77222 48.5678L16.3183 53.2554L16.6489 52.088ZM14.0748 50.2901L11.2686 48.3342L11.2847 48.2773L14.6998 48.0835L14.0748 50.2901Z" fill="#F5F5F5"/>
<path d="M18.5937 45.2997L19.0932 44.2716L16.122 42.828L17.7725 39.431L20.7437 40.8745L21.2448 39.8431L14.4307 36.5324L13.9296 37.5639L16.8908 39.0026L15.2403 42.3996L12.2791 40.9609L11.7796 41.989L18.5937 45.2997Z" fill="#F5F5F5"/>
<path d="M16.9284 33.9927L18.3167 32.0842L23.6473 35.9618L24.3175 35.0405L18.9869 31.1628L20.3773 29.2514L19.5816 28.6725L16.1327 33.4139L16.9284 33.9927Z" fill="#F5F5F5"/>
<path d="M21.7885 25.8754L27.0472 31.3287L27.8034 30.5995L26.7186 23.9271L26.7692 23.8783L30.6259 27.8777L31.4487 27.0843L26.1901 21.631L25.4285 22.3654L26.5158 29.0457L26.4652 29.0945L22.6033 25.0897L21.7885 25.8754Z" fill="#F5F5F5"/>
<path d="M33.4236 25.2927L34.3788 24.665L32.5649 21.9043L35.7213 19.8303L37.5352 22.591L38.4936 21.9613L34.3334 15.63L33.3751 16.2597L35.183 19.0111L32.0266 21.0851L30.2187 18.3337L29.2635 18.9613L33.4236 25.2927Z" fill="#F5F5F5"/>
<path d="M41.3485 20.3577L41.2001 18.2408L43.9213 17.0778L45.3453 18.6496L46.461 18.1728L40.9769 12.2779L39.7626 12.7969L40.2328 20.8345L41.3485 20.3577ZM41.1283 17.2256L40.885 13.8137L40.9394 13.7904L43.2372 16.3243L41.1283 17.2256Z" fill="#F5F5F5"/>
<path d="M55.2294 16.0328L56.604 15.7978L52.7997 12.2038L55.2142 8.3497L53.8396 8.58473L51.5567 12.2212L51.1884 12.2842L50.6492 9.13024L49.5225 9.32288L50.7993 16.7903L51.926 16.5976L51.3537 13.2504L52.1485 13.1145L55.2294 16.0328Z" fill="#F5F5F5"/>
<path d="M65.5009 11.7623C65.5289 9.33958 64.096 7.85434 62.1356 7.83164C60.1678 7.80885 58.7045 9.26054 58.6765 11.6833C58.6485 14.1023 60.0777 15.5912 62.0455 15.614C64.0058 15.6367 65.4728 14.1851 65.5009 11.7623ZM64.369 11.7492C64.3476 13.5949 63.3595 14.586 62.0575 14.5709C60.7518 14.5558 59.7906 13.5422 59.812 11.6964C59.8334 9.85072 60.8178 8.85959 62.1235 8.87471C63.4255 8.88979 64.3904 9.90349 64.369 11.7492Z" fill="#F5F5F5"/>
<path d="M67.5635 15.6505L68.6846 15.8733L69.3283 12.6333L73.0327 13.3692L72.389 16.6092L73.5137 16.8327L74.99 9.40213L73.8652 9.17868L73.2237 12.4078L69.5193 11.6718L70.1608 8.44273L69.0397 8.22L67.5635 15.6505Z" fill="#F5F5F5"/>
<path d="M83.6705 14.9792C84.0334 13.379 83.2083 12.0278 81.7217 11.4315C79.9021 10.7017 78.013 11.5262 77.111 13.775C76.2091 16.0238 76.9979 17.9224 78.8244 18.655C80.3693 19.2747 81.8872 18.7596 82.6749 17.4614L81.6051 17.0283C81.0624 17.8548 80.1088 18.0463 79.2196 17.6896C78.0145 17.2063 77.4751 15.9178 78.165 14.1978C78.8494 12.4915 80.1317 11.9177 81.3437 12.4038C82.2397 12.7632 82.7892 13.5695 82.5994 14.5495L83.6705 14.9792Z" fill="#F5F5F5"/>
<path d="M87.1748 14.9584L89.1752 16.2106L85.6775 21.7979L86.6432 22.4025L90.1409 16.8152L92.1444 18.0694L92.6665 17.2353L87.6969 14.1243L87.1748 14.9584Z" fill="#F5F5F5"/>
<path d="M91.1149 25.4263L92.9673 24.3909L95.1779 26.3583L94.3617 28.3159L95.268 29.1225L98.268 21.6509L97.2816 20.773L90.2085 24.6197L91.1149 25.4263ZM93.8554 23.8938L96.8392 22.2214L96.8834 22.2608L95.5686 25.4186L93.8554 23.8938Z" fill="#F5F5F5"/>
<path d="M96.4031 30.1784L97.112 31.075L99.7032 29.0263L102.046 31.9889L99.4545 34.0376L100.166 34.9372L106.108 30.2385L105.397 29.339L102.815 31.3809L100.472 28.4183L103.055 26.3764L102.346 25.4798L96.4031 30.1784Z" fill="#F5F5F5"/>
<path d="M107.318 33.588L108.435 35.667L102.628 38.7868L103.168 39.7904L108.974 36.6707L110.093 38.7529L110.96 38.2872L108.185 33.1224L107.318 33.588Z" fill="#F5F5F5"/>
<path d="M112.499 41.4625L105.302 43.8282L105.63 44.8263L112.111 46.7494L112.133 46.8162L106.855 48.5512L107.212 49.6371L114.409 47.2714L114.078 46.2663L107.589 44.3419L107.567 44.2752L112.853 42.5378L112.499 41.4625Z" fill="#F5F5F5"/>
<path d="M107.937 52.1156L108.087 53.2488L111.362 52.8173L111.855 56.5617L108.58 56.9932L108.73 58.1301L116.241 57.1405L116.091 56.0036L112.827 56.4337L112.334 52.6892L115.597 52.2592L115.448 51.126L107.937 52.1156Z" fill="#F5F5F5"/>
</svg>
