<svg width="1024" height="29" viewBox="0 0 1024 29" fill="none" xmlns="http://www.w3.org/2000/svg">
<path d="M3.33196 19.7986L3.33196 18.4306H4.14196C4.44196 18.4306 4.66396 18.3586 4.80796 18.2146C4.96396 18.0586 5.12596 17.8306 5.29396 17.5306L5.76196 16.5226L0.43396 6.96463H2.21596L6.49996 14.8666L10.1 6.96463H11.81L6.53596 18.3046C6.27196 18.8446 5.98996 19.2286 5.68996 19.4566C5.40196 19.6846 4.99996 19.7986 4.48396 19.7986H3.33196ZM23.4392 6.96463V19.7446H21.8192V13.9306H14.7812V19.7446H13.1612V6.96463H14.7812V12.4906H21.8192V6.96463H23.4392ZM26.593 19.7446V6.96463H28.213V17.4946L35.611 6.96463H37.123V19.7446H35.503V9.41263L28.195 19.7446H26.593ZM40.2667 19.7446V6.96463H41.8867V12.4906H43.5967L47.8087 6.96463H49.6807L44.9287 13.1566L50.0047 19.7446H48.0247L43.6327 13.9666H41.8867V19.7446H40.2667ZM55.8793 6.96463H57.2473L62.4673 19.7446H60.7393L59.2273 16.0006H53.8633L52.3693 19.7446H50.6413L55.8793 6.96463ZM58.8673 14.7406L56.5633 8.83663L54.1873 14.7406H58.8673ZM72.6329 19.7446V8.40463H67.8629L67.7909 10.9426C67.7309 12.6826 67.5989 14.1286 67.3949 15.2806C67.2029 16.4206 66.9209 17.3206 66.5489 17.9806C66.1889 18.6286 65.7389 19.0906 65.1989 19.3666C64.6589 19.6426 64.0169 19.7806 63.2729 19.7806V18.3586C63.7289 18.3586 64.1309 18.2446 64.4789 18.0166C64.8269 17.7886 65.1209 17.3926 65.3609 16.8286C65.6129 16.2526 65.8109 15.4546 65.9549 14.4346C66.0989 13.4146 66.1949 12.1126 66.2429 10.5286L66.3509 6.96463H74.2529V19.7446H72.6329ZM77.3214 19.7446V6.96463H78.9414V11.8066H82.0014C82.9374 11.8066 83.7174 11.9746 84.3414 12.3106C84.9654 12.6346 85.4334 13.0966 85.7454 13.6966C86.0694 14.2846 86.2314 14.9746 86.2314 15.7666C86.2314 16.5106 86.0754 17.1886 85.7634 17.8006C85.4514 18.4006 84.9894 18.8746 84.3774 19.2226C83.7654 19.5706 83.0094 19.7446 82.1094 19.7446H77.3214ZM78.9414 18.3946H81.8934C82.5294 18.3946 83.0454 18.2746 83.4414 18.0346C83.8374 17.7826 84.1254 17.4586 84.3054 17.0626C84.4854 16.6546 84.5754 16.2226 84.5754 15.7666C84.5754 15.3106 84.4914 14.8846 84.3234 14.4886C84.1674 14.0926 83.8914 13.7746 83.4954 13.5346C83.0994 13.2826 82.5594 13.1566 81.8754 13.1566H78.9414V18.3946ZM98.6736 6.96463V19.7446H97.0536V13.9306H90.0156V19.7446H88.3956V6.96463H90.0156V12.4906H97.0536V6.96463H98.6736ZM105.625 6.96463H106.993L112.213 19.7446H110.485L108.973 16.0006H103.609L102.115 19.7446H100.387L105.625 6.96463ZM108.613 14.7406L106.309 8.83663L103.933 14.7406H108.613ZM113.559 19.7446L116.889 14.4166C116.013 14.1886 115.329 13.7446 114.837 13.0846C114.357 12.4246 114.117 11.6386 114.117 10.7266C114.117 10.0186 114.291 9.38263 114.639 8.81863C114.987 8.25463 115.473 7.80463 116.097 7.46863C116.733 7.13263 117.477 6.96463 118.329 6.96463H122.613V19.7446H120.993V14.6146H119.013C118.941 14.6146 118.863 14.6146 118.779 14.6146C118.707 14.6146 118.635 14.6146 118.563 14.6146L115.431 19.7446H113.559ZM118.455 13.2106H120.993V8.36863H118.527C117.999 8.36863 117.525 8.46463 117.105 8.65663C116.685 8.84863 116.355 9.11863 116.115 9.46663C115.887 9.81463 115.773 10.2346 115.773 10.7266C115.773 11.2186 115.875 11.6506 116.079 12.0226C116.295 12.3946 116.601 12.6886 116.997 12.9046C117.405 13.1086 117.891 13.2106 118.455 13.2106ZM130.232 19.7446V6.96463H131.852V12.4906H133.562L137.774 6.96463H139.646L134.894 13.1566L139.97 19.7446H137.99L133.598 13.9666H131.852V19.7446H130.232ZM150.416 19.7446V8.40463H145.646L145.574 10.9426C145.514 12.6826 145.382 14.1286 145.178 15.2806C144.986 16.4206 144.704 17.3206 144.332 17.9806C143.972 18.6286 143.522 19.0906 142.982 19.3666C142.442 19.6426 141.8 19.7806 141.056 19.7806V18.3586C141.512 18.3586 141.914 18.2446 142.262 18.0166C142.61 17.7886 142.904 17.3926 143.144 16.8286C143.396 16.2526 143.594 15.4546 143.738 14.4346C143.882 13.4146 143.978 12.1126 144.026 10.5286L144.134 6.96463H152.036V19.7446H150.416ZM164.771 19.8346C163.703 19.8346 162.755 19.5946 161.927 19.1146C161.099 18.6346 160.433 17.9626 159.929 17.0986C159.425 16.2226 159.131 15.2026 159.047 14.0386H156.725V19.7446H155.105V6.96463H156.725V12.5986H159.065C159.161 11.4106 159.467 10.3906 159.983 9.53863C160.499 8.68663 161.171 8.03263 161.999 7.57663C162.839 7.10863 163.769 6.87463 164.789 6.87463C165.965 6.87463 166.991 7.15063 167.867 7.70263C168.743 8.25463 169.427 9.02263 169.919 10.0066C170.411 10.9786 170.657 12.1006 170.657 13.3726C170.657 14.7406 170.399 15.9046 169.883 16.8646C169.367 17.8246 168.665 18.5626 167.777 19.0786C166.901 19.5826 165.899 19.8346 164.771 19.8346ZM164.789 18.3766C165.665 18.3766 166.415 18.1606 167.039 17.7286C167.663 17.2966 168.143 16.7026 168.479 15.9466C168.827 15.1906 169.001 14.3266 169.001 13.3546C169.001 12.3226 168.821 11.4346 168.461 10.6906C168.101 9.94663 167.603 9.37063 166.967 8.96263C166.343 8.55463 165.611 8.35063 164.771 8.35063C163.919 8.35063 163.181 8.56663 162.557 8.99863C161.945 9.41863 161.471 10.0066 161.135 10.7626C160.811 11.5066 160.649 12.3706 160.649 13.3546C160.649 14.3746 160.817 15.2626 161.153 16.0186C161.501 16.7746 161.987 17.3566 162.611 17.7646C163.235 18.1726 163.961 18.3766 164.789 18.3766ZM172.911 19.7446V6.96463H174.531V18.3046H179.319V6.96463H180.939V18.3046H185.727V6.96463H187.347V19.7446H172.911ZM190.401 19.7446V6.96463H192.021V12.4906L193.731 12.4906L197.943 6.96463H199.815L195.063 13.1566L200.139 19.7446H198.159L193.767 13.9666L192.021 13.9666V19.7446H190.401ZM206.014 6.96463H207.382L212.602 19.7446H210.874L209.362 16.0006H203.998L202.504 19.7446H200.776L206.014 6.96463ZM209.002 14.7406L206.698 8.83663L204.322 14.7406H209.002ZM217.47 13.2646C217.47 12.4846 217.602 11.7226 217.866 10.9786C218.142 10.2226 218.538 9.53863 219.054 8.92663C219.582 8.30263 220.224 7.81063 220.98 7.45063C221.736 7.07863 222.594 6.89263 223.554 6.89263C224.694 6.89263 225.672 7.15663 226.488 7.68463C227.304 8.20063 227.91 8.86663 228.306 9.68263L227.028 10.5106C226.776 9.97063 226.452 9.54463 226.056 9.23263C225.672 8.90863 225.252 8.68063 224.796 8.54863C224.352 8.41663 223.914 8.35063 223.482 8.35063C222.774 8.35063 222.144 8.49463 221.592 8.78263C221.052 9.07063 220.596 9.45463 220.224 9.93463C219.852 10.4146 219.57 10.9546 219.378 11.5546C219.198 12.1426 219.108 12.7366 219.108 13.3366C219.108 13.9966 219.216 14.6326 219.432 15.2446C219.66 15.8566 219.972 16.3966 220.368 16.8646C220.764 17.3326 221.232 17.7046 221.772 17.9806C222.312 18.2566 222.9 18.3946 223.536 18.3946C223.98 18.3946 224.436 18.3166 224.904 18.1606C225.372 18.0046 225.81 17.7646 226.218 17.4406C226.626 17.1046 226.95 16.6726 227.19 16.1446L228.54 16.8826C228.276 17.5186 227.868 18.0586 227.316 18.5026C226.764 18.9466 226.146 19.2826 225.462 19.5106C224.79 19.7386 224.124 19.8526 223.464 19.8526C222.588 19.8526 221.784 19.6666 221.052 19.2946C220.32 18.9106 219.684 18.4066 219.144 17.7826C218.616 17.1466 218.202 16.4386 217.902 15.6586C217.614 14.8666 217.47 14.0686 217.47 13.2646ZM243.791 8.40463H239.381V19.7446H237.761V8.40463H233.351V6.96463H243.791V8.40463ZM255.442 16.4506C255.442 17.1106 255.274 17.6866 254.938 18.1786C254.602 18.6706 254.146 19.0546 253.57 19.3306C253.006 19.6066 252.382 19.7446 251.698 19.7446H245.632V6.96463H251.986C252.586 6.96463 253.102 7.12663 253.534 7.45063C253.978 7.76263 254.314 8.17063 254.542 8.67463C254.782 9.16663 254.902 9.68263 254.902 10.2226C254.902 10.8466 254.74 11.4346 254.416 11.9866C254.104 12.5266 253.654 12.9286 253.066 13.1926C253.798 13.4086 254.374 13.8106 254.794 14.3986C255.226 14.9746 255.442 15.6586 255.442 16.4506ZM253.804 16.1626C253.804 15.7666 253.714 15.4006 253.534 15.0646C253.366 14.7286 253.132 14.4586 252.832 14.2546C252.544 14.0506 252.208 13.9486 251.824 13.9486H247.252V18.3406H251.698C252.094 18.3406 252.448 18.2386 252.76 18.0346C253.084 17.8306 253.336 17.5666 253.516 17.2426C253.708 16.9066 253.804 16.5466 253.804 16.1626ZM247.252 8.36863V12.6346H251.32C251.704 12.6346 252.04 12.5386 252.328 12.3466C252.628 12.1546 252.862 11.8966 253.03 11.5726C253.21 11.2486 253.3 10.8946 253.3 10.5106C253.3 10.1026 253.216 9.74263 253.048 9.43063C252.892 9.10663 252.67 8.84863 252.382 8.65663C252.106 8.46463 251.788 8.36863 251.428 8.36863H247.252ZM262.892 19.8346C261.992 19.8346 261.176 19.6546 260.444 19.2946C259.712 18.9346 259.076 18.4486 258.536 17.8366C258.008 17.2126 257.6 16.5166 257.312 15.7486C257.024 14.9686 256.88 14.1706 256.88 13.3546C256.88 12.5026 257.03 11.6926 257.33 10.9246C257.642 10.1446 258.068 9.45463 258.608 8.85463C259.16 8.24263 259.802 7.76263 260.534 7.41463C261.266 7.05463 262.064 6.87463 262.928 6.87463C263.828 6.87463 264.644 7.06063 265.376 7.43263C266.108 7.80463 266.738 8.30263 267.266 8.92663C267.794 9.55063 268.202 10.2466 268.49 11.0146C268.778 11.7826 268.922 12.5686 268.922 13.3726C268.922 14.2246 268.772 15.0406 268.472 15.8206C268.172 16.5886 267.746 17.2786 267.194 17.8906C266.654 18.4906 266.018 18.9646 265.286 19.3126C264.554 19.6606 263.756 19.8346 262.892 19.8346ZM258.518 13.3546C258.518 14.0026 258.62 14.6326 258.824 15.2446C259.04 15.8446 259.34 16.3786 259.724 16.8466C260.108 17.3146 260.57 17.6866 261.11 17.9626C261.65 18.2386 262.25 18.3766 262.91 18.3766C263.594 18.3766 264.206 18.2326 264.746 17.9446C265.286 17.6566 265.742 17.2726 266.114 16.7926C266.498 16.3126 266.786 15.7726 266.978 15.1726C267.182 14.5726 267.284 13.9666 267.284 13.3546C267.284 12.7066 267.176 12.0826 266.96 11.4826C266.756 10.8826 266.456 10.3486 266.06 9.88063C265.676 9.40063 265.214 9.02863 264.674 8.76463C264.146 8.48863 263.558 8.35063 262.91 8.35063C262.226 8.35063 261.614 8.49463 261.074 8.78263C260.534 9.05863 260.072 9.43663 259.688 9.91663C259.316 10.3966 259.028 10.9366 258.824 11.5366C258.62 12.1246 258.518 12.7306 258.518 13.3546ZM271.263 19.7446V6.96463H272.883V17.4946L280.281 6.96463H281.793V19.7446H280.173V9.41263L272.865 19.7446H271.263ZM295.989 19.7446V9.98863L291.777 17.4946H290.787L286.557 9.98863V19.7446H284.937V6.96463H286.647L291.273 15.2626L295.917 6.96463H297.609V19.7446H295.989ZM305.312 19.7446V6.96463H306.932V17.4946L314.33 6.96463H315.842V19.7446H314.222V9.41263L306.914 19.7446H305.312ZM330.037 19.7446V9.98863L325.825 17.4946H324.835L320.605 9.98863V19.7446H318.985V6.96463H320.695L325.321 15.2626L329.965 6.96463H331.657V19.7446H330.037ZM343.394 18.3046V19.7446H334.718V6.96463H343.232V8.40463H336.338V12.5446H342.332V13.8946H336.338V18.3046H343.394ZM355.894 6.96463V19.7446H354.274V13.9306H347.236V19.7446H345.616V6.96463H347.236V12.4906H354.274V6.96463H355.894ZM367.634 18.3046V19.7446H358.958V6.96463H367.472V8.40463H360.578V12.5446H366.572V13.8946H360.578V18.3046H367.634ZM380.909 19.7446V9.98863L376.697 17.4946H375.707L371.477 9.98863V19.7446H369.857V6.96463H371.567L376.193 15.2626L380.837 6.96463H382.529V19.7446H380.909Z" fill="#F5F5F5"/>
<path d="M520.994 17.3867L521.158 4.60774L522.778 4.62858L522.707 10.1541L524.417 10.1761L528.7 4.70477L530.572 4.72885L525.74 10.8592L530.731 17.512L528.751 17.4865L524.434 11.6525L522.688 11.63L522.614 17.4075L520.994 17.3867ZM541.177 17.6464L541.323 6.30729L536.553 6.24592L536.449 8.78279C536.366 10.5219 536.216 11.9661 535.997 13.1153C535.79 14.2528 535.497 15.1491 535.116 15.8042C534.748 16.4475 534.292 16.9037 533.748 17.1727C533.205 17.4418 532.561 17.5715 531.817 17.5619L531.836 16.1401C532.292 16.1459 532.695 16.0371 533.046 15.8136C533.397 15.5901 533.696 15.1979 533.943 14.637C534.202 14.0643 534.411 13.2689 534.568 12.2509C534.725 11.2328 534.838 9.93216 534.906 8.34891L535.06 4.78659L542.961 4.88825L542.797 17.6672L541.177 17.6464ZM555.529 17.921C554.461 17.9073 553.516 17.6551 552.695 17.1645C551.873 16.6739 551.216 15.9934 550.723 15.1229C550.23 14.2405 549.949 13.2168 549.88 12.0519L547.558 12.022L547.485 17.7275L545.865 17.7067L546.029 4.92772L547.649 4.94856L547.577 10.5821L549.917 10.6122C550.028 9.42554 550.347 8.40956 550.874 7.56426C551.401 6.71897 552.081 6.07367 552.915 5.62836C553.761 5.17121 554.694 4.94919 555.714 4.96231C556.89 4.97744 557.912 5.26662 558.781 5.82984C559.65 6.39306 560.324 7.1698 560.803 8.16005C561.283 9.1383 561.514 10.2634 561.498 11.5353C561.48 12.9032 561.207 14.0637 560.679 15.017C560.151 15.9703 559.439 16.6992 558.545 17.2037C557.662 17.6964 556.657 17.9355 555.529 17.921ZM555.566 16.4634C556.442 16.4746 557.194 16.2683 557.824 15.8444C558.453 15.4204 558.941 14.8326 559.287 14.081C559.644 13.3296 559.83 12.4679 559.842 11.496C559.855 10.464 559.687 9.57381 559.336 8.82524C558.986 8.07667 558.495 7.49431 557.865 7.07816C557.246 6.66217 556.517 6.44877 555.677 6.43796C554.825 6.427 554.084 6.63349 553.455 7.05742C552.837 7.46951 552.356 8.05137 552.01 8.80298C551.677 9.54275 551.503 10.4046 551.491 11.3885C551.478 12.4084 551.634 13.2985 551.96 14.0588C552.299 14.8192 552.777 15.4074 553.396 15.8234C554.015 16.2394 554.738 16.4527 555.566 16.4634ZM563.67 17.9357L563.835 5.1568L565.454 5.17764L565.309 16.5167L570.096 16.5783L570.242 5.23924L571.862 5.26008L571.716 16.5991L576.504 16.6607L576.65 5.32167L578.269 5.34251L578.105 18.1215L563.67 17.9357ZM581.159 18.1607L581.323 5.3818L582.943 5.40265L582.872 10.9282L584.582 10.9502L588.865 5.47883L590.737 5.50291L585.905 11.6333L590.896 18.286L588.916 18.2606L584.599 12.4265L582.853 12.4041L582.779 18.1816L581.159 18.1607ZM592.973 18.3127L593.137 5.5338L594.757 5.55464L594.621 16.0838L602.154 5.64981L603.666 5.66926L603.502 18.4482L601.882 18.4274L602.015 8.09622L594.574 18.3333L592.973 18.3127ZM610.266 20.9834L610.316 17.0958L610.892 17.1032C611.228 17.1075 611.524 16.9793 611.779 16.7185C612.035 16.4458 612.256 16.0166 612.444 15.431C612.631 14.8334 612.786 14.0373 612.906 13.0427C613.027 12.0482 613.121 10.8193 613.188 9.35606L613.324 5.79351L621.243 5.8954L621.097 17.2345L622.681 17.2548L622.631 21.1425L621.191 21.124L621.223 18.6762L611.737 18.5542L611.706 21.002L610.266 20.9834ZM613.052 17.131L619.477 17.2136L619.605 7.31444L614.799 7.25261L614.715 9.57373C614.66 11.0851 614.566 12.35 614.432 13.3684C614.299 14.3868 614.121 15.2005 613.897 15.8097C613.673 16.4189 613.391 16.8593 613.052 17.131ZM633.279 18.8313L633.425 7.49224L628.655 7.43088L628.55 9.96774C628.468 11.7068 628.317 13.151 628.099 14.3003C627.892 15.4377 627.598 16.334 627.218 16.9892C626.85 17.6325 626.394 18.0887 625.85 18.3577C625.307 18.6267 624.663 18.7565 623.919 18.7469L623.937 17.325C624.393 17.3309 624.797 17.2221 625.148 16.9985C625.499 16.775 625.798 16.3829 626.045 15.822C626.304 15.2493 626.512 14.4539 626.67 13.4358C626.827 12.4178 626.939 11.1171 627.008 9.53386L627.162 5.97155L635.063 6.0732L634.899 18.8521L633.279 18.8313ZM637.607 18.887L641.005 13.6023C640.132 13.363 639.454 12.9103 638.97 12.244C638.499 11.5779 638.269 10.7888 638.281 9.87691C638.29 9.16897 638.472 8.53526 638.827 7.97578C639.183 7.41631 639.674 6.9726 640.303 6.64465C640.943 6.31686 641.689 6.15845 642.541 6.16941L646.824 6.22452L646.66 19.0035L645.04 18.9826L645.106 13.853L643.126 13.8276C643.054 13.8266 642.976 13.8256 642.892 13.8246C642.82 13.8236 642.748 13.8227 642.676 13.8218L639.479 18.9111L637.607 18.887ZM642.586 12.4165L645.124 12.4492L645.187 7.60756L642.721 7.57584C642.193 7.56905 641.718 7.65894 641.295 7.84552C640.873 8.0321 640.539 8.29784 640.295 8.64272C640.062 8.98776 639.943 9.40626 639.937 9.89822C639.93 10.3902 640.027 10.8235 640.226 11.198C640.437 11.5728 640.739 11.8707 641.133 12.0918C641.538 12.301 642.023 12.4093 642.586 12.4165ZM665.329 19.2437L665.455 9.48846L661.146 16.9397L660.156 16.9269L656.023 9.36712L655.898 19.1223L654.278 19.1015L654.442 6.32253L656.152 6.34453L660.671 14.7014L665.421 6.46378L667.113 6.48555L666.949 19.2645L665.329 19.2437ZM674.061 6.57494L675.429 6.59254L680.484 19.4386L678.756 19.4164L677.293 15.6533L671.929 15.5843L670.387 19.3087L668.659 19.2865L674.061 6.57494ZM676.949 14.3887L674.721 8.45558L672.269 14.3285L676.949 14.3887ZM690.649 19.5694L690.795 8.23035L686.025 8.16899L685.921 10.7058C685.838 12.4449 685.688 13.8891 685.469 15.0384C685.262 16.1758 684.969 17.0721 684.588 17.7273C684.22 18.3706 683.764 18.8268 683.22 19.0958C682.677 19.3648 682.033 19.4946 681.289 19.485L681.308 18.0631C681.764 18.069 682.167 17.9602 682.518 17.7367C682.869 17.5132 683.168 17.121 683.415 16.5601C683.674 15.9874 683.883 15.192 684.04 14.1739C684.197 13.1559 684.31 11.8552 684.378 10.272L684.532 6.70965L692.433 6.81131L692.269 19.5903L690.649 19.5694ZM704.031 18.3015L704.012 19.7413L695.337 19.6297L695.501 6.85078L704.015 6.96031L703.996 8.40019L697.103 8.31151L697.05 12.4512L703.043 12.5283L703.026 13.8782L697.032 13.8011L696.975 18.2107L704.031 18.3015ZM716.676 7.12321L716.512 19.9022L714.892 19.8813L714.967 14.0678L707.929 13.9773L707.854 19.7908L706.235 19.7699L706.399 6.99099L708.019 7.01183L707.948 12.5374L714.985 12.6279L715.056 7.10237L716.676 7.12321ZM719.575 19.9416L719.74 7.16263L721.36 7.18347L721.297 12.0251L724.357 12.0644C725.293 12.0765 726.071 12.2545 726.69 12.5985C727.31 12.9305 727.772 13.3985 728.076 14.0024C728.393 14.5946 728.546 15.2866 728.536 16.0785C728.526 16.8225 728.361 17.4984 728.042 18.1063C727.722 18.7023 727.254 19.1703 726.637 19.5104C726.021 19.8505 725.263 20.0147 724.363 20.0032L719.575 19.9416ZM721.212 18.6125L724.164 18.6505C724.8 18.6587 725.318 18.5453 725.717 18.3104C726.116 18.0636 726.408 17.7433 726.593 17.3496C726.778 16.944 726.874 16.5132 726.88 16.0572C726.886 15.6013 726.807 15.1742 726.644 14.7761C726.493 14.3781 726.222 14.0566 725.829 13.8115C725.436 13.5544 724.898 13.4215 724.214 13.4127L721.28 13.375L721.212 18.6125ZM730.649 20.084L730.813 7.30509L732.433 7.32593L732.362 12.8515L734.072 12.8735L738.354 7.40212L740.226 7.4262L735.395 13.5566L740.386 20.2093L738.406 20.1838L734.089 14.3498L732.343 14.3274L732.268 20.1049L730.649 20.084ZM742.462 20.236L742.627 7.45708L744.246 7.47792L744.111 18.0071L751.644 7.57309L753.156 7.59255L752.991 20.3715L751.371 20.3506L751.504 10.0195L744.064 20.2566L742.462 20.236ZM756.659 7.63762L760.443 12.9787L764.362 7.73673L766.18 7.76012L761.327 14.1782L765.872 20.5372L764.054 20.5138L760.412 15.3545L756.639 20.4184L754.803 20.3948L759.51 14.1548L754.823 7.614L756.659 7.63762ZM779.167 20.7083L779.235 15.3627C779.006 15.4558 778.735 15.5543 778.421 15.6582C778.108 15.7622 777.747 15.8476 777.338 15.9143C776.941 15.9692 776.503 15.9936 776.023 15.9874C774.607 15.9692 773.561 15.6437 772.885 15.011C772.21 14.3662 771.881 13.3539 771.898 11.974L771.952 7.83437L773.517 7.85451L773.466 11.8142C773.455 12.7381 773.668 13.4189 774.106 13.8566C774.557 14.2824 775.292 14.5019 776.312 14.515C776.84 14.5218 777.375 14.4687 777.916 14.3556C778.47 14.2428 778.916 14.0985 779.254 13.9228L779.331 7.92931L780.915 7.94969L780.75 20.7286L779.167 20.7083ZM792.512 19.4398L792.493 20.8797L783.818 20.7681L783.982 7.98915L792.496 8.09868L792.477 9.53856L785.584 9.44987L785.53 13.5895L791.524 13.6666L791.507 15.0165L785.513 14.9394L785.456 19.3491L792.512 19.4398ZM805.767 21.0505L805.892 11.2953L801.584 18.7465L800.594 18.7337L796.461 11.1739L796.335 20.9291L794.716 20.9083L794.88 8.12936L796.59 8.15135L801.109 16.5082L805.859 8.27061L807.551 8.29238L807.386 21.0713L805.767 21.0505ZM810.447 21.1107L810.611 8.33175L820.474 8.45864L820.31 21.2376L818.69 21.2167L818.836 9.87768L812.212 9.79247L812.067 21.1315L810.447 21.1107ZM823.455 21.2781L823.62 8.49912L825.24 8.51996L825.104 19.0491L832.637 8.61513L834.149 8.63458L833.985 21.4135L832.365 21.3927L832.498 11.0615L825.057 21.2987L823.455 21.2781ZM842.31 21.6106C841.411 21.5991 840.597 21.4086 839.87 21.0392C839.142 20.6698 838.513 20.1757 837.981 19.5568C837.461 18.926 837.062 18.2248 836.783 17.4532C836.506 16.6696 836.372 15.8698 836.382 15.0538C836.393 14.2019 836.554 13.3939 836.864 12.6298C837.186 11.8539 837.62 11.1694 838.168 10.5764C838.728 9.9716 839.376 9.4999 840.112 9.16134C840.849 8.81079 841.649 8.64107 842.513 8.65218C843.413 8.66376 844.227 8.86024 844.954 9.24163C845.681 9.62302 846.304 10.1291 846.824 10.7598C847.344 11.3906 847.743 12.0918 848.021 12.8634C848.3 13.635 848.433 14.4228 848.423 15.2268C848.412 16.0787 848.252 16.8927 847.942 17.6688C847.632 18.4328 847.197 19.1173 846.637 19.7222C846.089 20.3152 845.447 20.7809 844.711 21.1195C843.975 21.458 843.174 21.6218 842.31 21.6106ZM838.02 15.0749C838.012 15.7229 838.106 16.3541 838.302 16.9687C838.51 17.5714 838.803 18.1092 839.181 18.5821C839.559 19.055 840.016 19.433 840.553 19.7159C841.089 19.9988 841.687 20.1445 842.347 20.153C843.031 20.1618 843.645 20.0257 844.189 19.7447C844.732 19.4636 845.193 19.0855 845.571 18.6104C845.961 18.1353 846.256 17.5991 846.456 17.0016C846.668 16.4043 846.778 15.7996 846.785 15.1877C846.794 14.5397 846.694 13.9144 846.486 13.3117C846.289 12.7091 845.996 12.1713 845.606 11.6982C845.228 11.2133 844.771 10.8354 844.235 10.5645C843.71 10.2817 843.124 10.1362 842.476 10.1278C841.792 10.119 841.178 10.2551 840.635 10.5362C840.091 10.8052 839.624 11.1772 839.234 11.6523C838.856 12.1274 838.561 12.6637 838.35 13.261C838.138 13.8463 838.028 14.451 838.02 15.0749ZM861.033 8.98047L860.869 21.7594L859.249 21.7386L859.324 15.925L852.286 15.8345L852.212 21.648L850.592 21.6272L850.756 8.84824L852.376 8.86908L852.305 14.3946L859.342 14.4852L859.413 8.95962L861.033 8.98047ZM869.115 21.9555C868.215 21.9439 867.401 21.7534 866.674 21.3841C865.947 21.0147 865.317 20.5205 864.785 19.9016C864.265 19.2709 863.866 18.5697 863.588 17.7981C863.31 17.0144 863.176 16.2146 863.187 15.3987C863.198 14.5468 863.358 13.7388 863.668 12.9747C863.99 12.1988 864.425 11.5143 864.972 10.9213C865.532 10.3165 866.18 9.84475 866.917 9.5062C867.653 9.15564 868.454 8.98593 869.318 8.99704C870.218 9.00862 871.031 9.2051 871.758 9.58649C872.485 9.96787 873.109 10.4739 873.629 11.1047C874.149 11.7354 874.548 12.4366 874.826 13.2083C875.104 13.9799 875.238 14.7677 875.228 15.5716C875.217 16.4235 875.056 17.2375 874.746 18.0136C874.436 18.7777 874.001 19.4622 873.442 20.067C872.894 20.66 872.252 21.1258 871.515 21.4643C870.779 21.8029 869.979 21.9666 869.115 21.9555ZM864.825 15.4198C864.816 16.0677 864.91 16.699 865.106 17.3136C865.315 17.9163 865.608 18.4541 865.986 18.927C866.364 19.3999 866.821 19.7778 867.357 20.0607C867.894 20.3437 868.492 20.4894 869.152 20.4979C869.836 20.5067 870.449 20.3705 870.993 20.0895C871.537 19.8085 871.998 19.4304 872.376 18.9552C872.766 18.4802 873.061 17.9439 873.261 17.3465C873.472 16.7491 873.582 16.1445 873.59 15.5325C873.598 14.8846 873.498 14.2593 873.29 13.6565C873.094 13.054 872.801 12.5161 872.411 12.0431C872.033 11.5582 871.576 11.1803 871.039 10.9093C870.515 10.6266 869.929 10.481 869.281 10.4727C868.597 10.4639 867.983 10.6 867.439 10.881C866.896 11.1501 866.429 11.5221 866.039 11.9971C865.661 12.4723 865.366 13.0085 865.154 13.6059C864.942 14.1912 864.833 14.7958 864.825 15.4198ZM887.248 18.8045C887.239 19.4645 887.064 20.0383 886.722 20.5259C886.379 21.0135 885.918 21.3916 885.339 21.6602C884.771 21.9289 884.146 22.0589 883.462 22.0501L877.396 21.972L877.561 9.1931L883.914 9.27484C884.514 9.28256 885.028 9.45119 885.456 9.78072C885.896 10.0984 886.226 10.5107 886.448 11.0176C886.682 11.5126 886.795 12.0301 886.788 12.5701C886.78 13.194 886.61 13.7799 886.279 14.3277C885.96 14.8636 885.505 15.2598 884.914 15.5162C885.643 15.7416 886.214 16.151 886.626 16.7444C887.051 17.3259 887.258 18.0126 887.248 18.8045ZM885.614 18.4955C885.619 18.0995 885.533 17.7324 885.358 17.3941C885.194 17.056 884.964 16.783 884.666 16.5751C884.381 16.3674 884.046 16.2611 883.662 16.2562L879.091 16.1974L879.034 20.589L883.48 20.6462C883.876 20.6513 884.231 20.5539 884.546 20.3539C884.872 20.1541 885.128 19.8933 885.312 19.5717C885.508 19.2382 885.609 18.8794 885.614 18.4955ZM879.162 10.6178L879.108 14.8835L883.175 14.9358C883.559 14.9407 883.896 14.8491 884.187 14.6608C884.489 14.4727 884.727 14.2177 884.899 13.8959C885.083 13.5742 885.177 13.2214 885.182 12.8375C885.188 12.4295 885.108 12.0684 884.944 11.7543C884.792 11.4283 884.574 11.1675 884.288 10.9718C884.015 10.7763 883.698 10.6762 883.338 10.6715L879.162 10.6178Z" fill="#F5F5F5"/>
</svg>
