<svg width="851" height="24" viewBox="0 0 851 24" fill="none" xmlns="http://www.w3.org/2000/svg">
<path d="M279.063 17.09C278.163 17.09 277.347 16.91 276.615 16.55C275.883 16.19 275.247 15.704 274.707 15.092C274.179 14.468 273.771 13.772 273.483 13.004C273.195 12.224 273.051 11.426 273.051 10.61C273.051 9.758 273.201 8.948 273.501 8.18C273.813 7.4 274.239 6.71 274.779 6.11C275.331 5.498 275.973 5.018 276.705 4.67C277.437 4.31 278.235 4.13 279.099 4.13C279.999 4.13 280.815 4.316 281.547 4.688C282.279 5.06 282.909 5.558 283.437 6.182C283.965 6.806 284.373 7.502 284.661 8.27C284.949 9.038 285.093 9.824 285.093 10.628C285.093 11.48 284.943 12.296 284.643 13.076C284.343 13.844 283.917 14.534 283.365 15.146C282.825 15.746 282.189 16.22 281.457 16.568C280.725 16.916 279.927 17.09 279.063 17.09ZM274.689 10.61C274.689 11.258 274.791 11.888 274.995 12.5C275.211 13.1 275.511 13.634 275.895 14.102C276.279 14.57 276.741 14.942 277.281 15.218C277.821 15.494 278.421 15.632 279.081 15.632C279.765 15.632 280.377 15.488 280.917 15.2C281.457 14.912 281.913 14.528 282.285 14.048C282.669 13.568 282.957 13.028 283.149 12.428C283.353 11.828 283.455 11.222 283.455 10.61C283.455 9.962 283.347 9.338 283.131 8.738C282.927 8.138 282.627 7.604 282.231 7.136C281.847 6.656 281.385 6.284 280.845 6.02C280.317 5.744 279.729 5.606 279.081 5.606C278.397 5.606 277.785 5.75 277.245 6.038C276.705 6.314 276.243 6.692 275.859 7.172C275.487 7.652 275.199 8.192 274.995 8.792C274.791 9.38 274.689 9.986 274.689 10.61ZM286.444 19.448L286.444 15.56L287.02 15.56C287.356 15.56 287.65 15.428 287.902 15.164C288.154 14.888 288.37 14.456 288.55 13.868C288.73 13.268 288.874 12.47 288.982 11.474C289.09 10.478 289.168 9.248 289.216 7.784L289.306 4.22L297.226 4.22L297.226 15.56L298.81 15.56L298.81 19.448L297.37 19.448L297.37 17L287.884 17L287.884 19.448L286.444 19.448ZM289.18 15.56L295.606 15.56L295.606 5.66L290.8 5.66L290.746 7.982C290.71 9.494 290.632 10.76 290.512 11.78C290.392 12.8 290.224 13.616 290.008 14.228C289.792 14.84 289.516 15.284 289.18 15.56ZM309.643 15.56L309.643 17L300.967 17L300.967 4.22L309.481 4.22L309.481 5.66L302.587 5.66L302.587 9.8L308.581 9.8L308.581 11.15L302.587 11.15L302.587 15.56L309.643 15.56ZM310.785 17L315.735 10.394L311.091 4.22L312.999 4.22L317.085 9.746L318.633 9.746L318.633 4.22L320.253 4.22L320.253 9.746L321.783 9.746L325.887 4.22L327.777 4.22L323.133 10.394L328.101 17L326.211 17L321.819 11.222L320.253 11.222L320.253 17L318.633 17L318.633 11.222L317.049 11.222L312.657 17L310.785 17ZM329.176 19.448L329.176 15.56L329.752 15.56C330.088 15.56 330.382 15.428 330.634 15.164C330.886 14.888 331.102 14.456 331.282 13.868C331.462 13.268 331.606 12.47 331.714 11.474C331.822 10.478 331.9 9.248 331.948 7.784L332.038 4.22L339.958 4.22L339.958 15.56L341.542 15.56L341.542 19.448L340.102 19.448L340.102 17L330.616 17L330.616 19.448L329.176 19.448ZM331.912 15.56L338.338 15.56L338.338 5.66L333.532 5.66L333.478 7.982C333.442 9.494 333.364 10.76 333.244 11.78C333.124 12.8 332.956 13.616 332.74 14.228C332.524 14.84 332.248 15.284 331.912 15.56ZM347.587 4.22L348.955 4.22L354.175 17L352.447 17L350.935 13.256L345.571 13.256L344.077 17L342.349 17L347.587 4.22ZM350.575 11.996L348.271 6.092L345.895 11.996L350.575 11.996Z" fill="#333333"/>
<path d="M548.418 4.22L549.786 4.22L555.006 17L553.278 17L551.766 13.256L546.402 13.256L544.908 17L543.18 17L548.418 4.22ZM551.406 11.996L549.102 6.092L546.726 11.996L551.406 11.996ZM556.712 17L556.712 4.22L558.332 4.22L558.332 9.746L560.042 9.746L564.254 4.22L566.126 4.22L561.374 10.412L566.45 17L564.47 17L560.078 11.222L558.332 11.222L558.332 17L556.712 17ZM566.888 10.52C566.888 9.74 567.02 8.978 567.284 8.234C567.56 7.478 567.956 6.794 568.472 6.182C569 5.558 569.642 5.066 570.398 4.706C571.154 4.334 572.012 4.148 572.972 4.148C574.112 4.148 575.09 4.412 575.906 4.94C576.722 5.456 577.328 6.122 577.724 6.938L576.446 7.766C576.194 7.226 575.87 6.8 575.474 6.488C575.09 6.164 574.67 5.936 574.214 5.804C573.77 5.672 573.332 5.606 572.9 5.606C572.192 5.606 571.562 5.75 571.01 6.038C570.47 6.326 570.014 6.71 569.642 7.19C569.27 7.67 568.988 8.21 568.796 8.81C568.616 9.398 568.526 9.992 568.526 10.592C568.526 11.252 568.634 11.888 568.85 12.5C569.078 13.112 569.39 13.652 569.786 14.12C570.182 14.588 570.65 14.96 571.19 15.236C571.73 15.512 572.318 15.65 572.954 15.65C573.398 15.65 573.854 15.572 574.322 15.416C574.79 15.26 575.228 15.02 575.636 14.696C576.044 14.36 576.368 13.928 576.608 13.4L577.958 14.138C577.694 14.774 577.286 15.314 576.734 15.758C576.182 16.202 575.564 16.538 574.88 16.766C574.208 16.994 573.542 17.108 572.882 17.108C572.006 17.108 571.202 16.922 570.47 16.55C569.738 16.166 569.102 15.662 568.562 15.038C568.034 14.402 567.62 13.694 567.32 12.914C567.032 12.122 566.888 11.324 566.888 10.52ZM588.661 15.56L588.661 17L579.985 17L579.985 4.22L588.499 4.22L588.499 5.66L581.605 5.66L581.605 9.8L587.599 9.8L587.599 11.15L581.605 11.15L581.605 15.56L588.661 15.56ZM589.809 10.52C589.809 9.74 589.941 8.978 590.205 8.234C590.481 7.478 590.877 6.794 591.393 6.182C591.921 5.558 592.563 5.066 593.319 4.706C594.075 4.334 594.933 4.148 595.893 4.148C597.033 4.148 598.011 4.412 598.827 4.94C599.643 5.456 600.249 6.122 600.645 6.938L599.367 7.766C599.115 7.226 598.791 6.8 598.395 6.488C598.011 6.164 597.591 5.936 597.135 5.804C596.691 5.672 596.253 5.606 595.821 5.606C595.113 5.606 594.483 5.75 593.931 6.038C593.391 6.326 592.935 6.71 592.563 7.19C592.191 7.67 591.909 8.21 591.717 8.81C591.537 9.398 591.447 9.992 591.447 10.592C591.447 11.252 591.555 11.888 591.771 12.5C591.999 13.112 592.311 13.652 592.707 14.12C593.103 14.588 593.571 14.96 594.111 15.236C594.651 15.512 595.239 15.65 595.875 15.65C596.319 15.65 596.775 15.572 597.243 15.416C597.711 15.26 598.149 15.02 598.557 14.696C598.965 14.36 599.289 13.928 599.529 13.4L600.879 14.138C600.615 14.774 600.207 15.314 599.655 15.758C599.103 16.202 598.485 16.538 597.801 16.766C597.129 16.994 596.463 17.108 595.803 17.108C594.927 17.108 594.123 16.922 593.391 16.55C592.659 16.166 592.023 15.662 591.483 15.038C590.955 14.402 590.541 13.694 590.241 12.914C589.953 12.122 589.809 11.324 589.809 10.52ZM601.938 10.52C601.938 9.74 602.07 8.978 602.334 8.234C602.61 7.478 603.006 6.794 603.522 6.182C604.05 5.558 604.692 5.066 605.448 4.706C606.204 4.334 607.062 4.148 608.022 4.148C609.162 4.148 610.14 4.412 610.956 4.94C611.772 5.456 612.378 6.122 612.774 6.938L611.496 7.766C611.244 7.226 610.92 6.8 610.524 6.488C610.14 6.164 609.72 5.936 609.264 5.804C608.82 5.672 608.382 5.606 607.95 5.606C607.242 5.606 606.612 5.75 606.06 6.038C605.52 6.326 605.064 6.71 604.692 7.19C604.32 7.67 604.038 8.21 603.846 8.81C603.666 9.398 603.576 9.992 603.576 10.592C603.576 11.252 603.684 11.888 603.9 12.5C604.128 13.112 604.44 13.652 604.836 14.12C605.232 14.588 605.7 14.96 606.24 15.236C606.78 15.512 607.368 15.65 608.004 15.65C608.448 15.65 608.904 15.572 609.372 15.416C609.84 15.26 610.278 15.02 610.686 14.696C611.094 14.36 611.418 13.928 611.658 13.4L613.008 14.138C612.744 14.774 612.336 15.314 611.784 15.758C611.232 16.202 610.614 16.538 609.93 16.766C609.258 16.994 608.592 17.108 607.932 17.108C607.056 17.108 606.252 16.922 605.52 16.55C604.788 16.166 604.152 15.662 603.612 15.038C603.084 14.402 602.67 13.694 602.37 12.914C602.082 12.122 601.938 11.324 601.938 10.52ZM616.404 17.054L616.404 15.686L617.214 15.686C617.514 15.686 617.736 15.614 617.88 15.47C618.036 15.314 618.198 15.086 618.366 14.786L618.834 13.778L613.506 4.22L615.288 4.22L619.572 12.122L623.172 4.22L624.882 4.22L619.608 15.56C619.344 16.1 619.062 16.484 618.762 16.712C618.474 16.94 618.072 17.054 617.556 17.054L616.404 17.054ZM630.121 4.22L631.489 4.22L636.709 17L634.981 17L633.469 13.256L628.105 13.256L626.611 17L624.883 17L630.121 4.22ZM633.109 11.996L630.805 6.092L628.429 11.996L633.109 11.996ZM638.415 17L638.415 4.22L643.743 4.22C644.307 4.22 644.823 4.34 645.291 4.58C645.759 4.808 646.167 5.12 646.515 5.516C646.863 5.9 647.133 6.338 647.325 6.83C647.517 7.31 647.613 7.802 647.613 8.306C647.613 9.002 647.457 9.668 647.145 10.304C646.833 10.928 646.395 11.438 645.831 11.834C645.267 12.218 644.607 12.41 643.851 12.41L640.035 12.41L640.035 17L638.415 17ZM640.035 10.97L643.761 10.97C644.205 10.97 644.589 10.85 644.913 10.61C645.249 10.37 645.507 10.046 645.687 9.638C645.879 9.23 645.975 8.786 645.975 8.306C645.975 7.802 645.867 7.352 645.651 6.956C645.435 6.548 645.153 6.23 644.805 6.002C644.457 5.774 644.073 5.66 643.653 5.66L640.035 5.66L640.035 10.97ZM649.63 17L649.63 4.22L651.25 4.22L651.25 9.062L654.31 9.062C655.246 9.062 656.026 9.23 656.65 9.566C657.274 9.89 657.742 10.352 658.054 10.952C658.378 11.54 658.54 12.23 658.54 13.022C658.54 13.766 658.384 14.444 658.072 15.056C657.76 15.656 657.298 16.13 656.686 16.478C656.074 16.826 655.318 17 654.418 17L649.63 17ZM651.25 15.65L654.202 15.65C654.838 15.65 655.354 15.53 655.75 15.29C656.146 15.038 656.434 14.714 656.614 14.318C656.794 13.91 656.884 13.478 656.884 13.022C656.884 12.566 656.8 12.14 656.632 11.744C656.476 11.348 656.2 11.03 655.804 10.79C655.408 10.538 654.868 10.412 654.184 10.412L651.25 10.412L651.25 15.65ZM660.664 17L660.664 4.238L662.284 4.238L662.284 17L660.664 17Z" fill="#333333"/>
<path d="M1.53 18.9796L1.53 6.19961L3.15 6.19961L3.15 11.7256L4.86 11.7256L9.072 6.19961L10.944 6.19961L6.192 12.3916L11.268 18.9796L9.288 18.9796L4.896 13.2016L3.15 13.2016L3.15 18.9796L1.53 18.9796ZM21.7146 18.9796L21.7146 7.63961L16.9446 7.63961L16.8726 10.1776C16.8126 11.9176 16.6806 13.3636 16.4766 14.5156C16.2846 15.6556 16.0026 16.5556 15.6306 17.2156C15.2706 17.8636 14.8206 18.3256 14.2806 18.6016C13.7406 18.8776 13.0986 19.0156 12.3546 19.0156L12.3546 17.5936C12.8106 17.5936 13.2126 17.4796 13.5606 17.2516C13.9086 17.0236 14.2026 16.6276 14.4426 16.0636C14.6946 15.4876 14.8926 14.6896 15.0366 13.6696C15.1806 12.6496 15.2766 11.3476 15.3246 9.76361L15.4326 6.19961L23.3346 6.19961L23.3346 18.9796L21.7146 18.9796ZM36.069 19.0696C35.001 19.0696 34.053 18.8296 33.225 18.3496C32.397 17.8696 31.731 17.1976 31.227 16.3336C30.723 15.4576 30.429 14.4376 30.345 13.2736L28.023 13.2736L28.023 18.9796L26.403 18.9796L26.403 6.19961L28.023 6.19961L28.023 11.8336L30.363 11.8336C30.459 10.6456 30.765 9.62561 31.281 8.77361C31.797 7.92161 32.469 7.26761 33.297 6.81161C34.137 6.34361 35.067 6.10961 36.087 6.10961C37.263 6.10961 38.289 6.38561 39.165 6.93761C40.041 7.48961 40.725 8.25761 41.217 9.24161C41.709 10.2136 41.955 11.3356 41.955 12.6076C41.955 13.9756 41.697 15.1396 41.181 16.0996C40.665 17.0596 39.963 17.7976 39.075 18.3136C38.199 18.8176 37.197 19.0696 36.069 19.0696ZM36.087 17.6116C36.963 17.6116 37.713 17.3956 38.337 16.9636C38.961 16.5316 39.441 15.9376 39.777 15.1816C40.125 14.4256 40.299 13.5616 40.299 12.5896C40.299 11.5576 40.119 10.6696 39.759 9.92561C39.399 9.18161 38.901 8.60561 38.265 8.19761C37.641 7.78961 36.909 7.58561 36.069 7.58561C35.217 7.58561 34.479 7.80161 33.855 8.23361C33.243 8.65361 32.769 9.24161 32.433 9.99761C32.109 10.7416 31.947 11.6056 31.947 12.5896C31.947 13.6096 32.115 14.4976 32.451 15.2536C32.799 16.0096 33.285 16.5916 33.909 16.9996C34.533 17.4076 35.259 17.6116 36.087 17.6116ZM44.2097 18.9796L44.2097 6.19961L45.8297 6.19961L45.8297 17.5396L50.6177 17.5396L50.6177 6.19961L52.2377 6.19961L52.2377 17.5396L57.0257 17.5396L57.0257 6.19961L58.6457 6.19961L58.6457 18.9796L44.2097 18.9796ZM61.6999 18.9796L61.6999 6.19961L63.3199 6.19961L63.3199 11.7256L65.0299 11.7256L69.2419 6.19961L71.1139 6.19961L66.3619 12.3916L71.4379 18.9796L69.4579 18.9796L65.0659 13.2016L63.3199 13.2016L63.3199 18.9796L61.6999 18.9796ZM73.5145 18.9796L73.5145 6.19961L75.1345 6.19961L75.1345 16.7296L82.5325 6.19961L84.0445 6.19961L84.0445 18.9796L82.4245 18.9796L82.4245 8.64761L75.1165 18.9796L73.5145 18.9796Z" fill="#333333"/>
</svg>
